<svg width="24" height="24" viewBox="0 0 24 24" fill="none" xmlns="http://www.w3.org/2000/svg"><path d="M6 21l-.998.067.062.933H6v-1zm12 0v1h.936l.062-.933L18 21zM3 5H2v2h1V5zm18 2h1V5h-1v2zm-10 4v-1H9v1h2zm-2 5v1h2v-1H9zm6-5v-1h-2v1h2zm-2 5v1h2v-1h-2zM4.002 6.067l1 15 1.996-.134-1-15-1.996.134zM6 22h12v-2H6v2zm12.998-.933l1-15-1.996-.134-1 15 1.996.134zM19 5H5v2h14V5zM3 7h2V5H3v2zm16 0h2V5h-2v2zM9 11v5h2v-5H9zm4 0v5h2v-5h-2zm-1-7c1.396 0 2.572.955 2.905 2.25l1.937-.5A5.002 5.002 0 0012 2v2zM9.094 6.25A3.002 3.002 0 0112 4V2a5.002 5.002 0 00-4.842 3.75l1.936.5z" fill="#666"/></svg>